<svg width="54" height="56" viewBox="0 0 54 56" fill="none" xmlns="http://www.w3.org/2000/svg">
<rect x="-1" y="1" width="52" height="54" rx="26" transform="matrix(-1 0 0 1 52 0)" stroke="#959EAD" stroke-width="2"/>
<path d="M25.9687 33.9375C25.6562 33.625 25.6875 33.1562 25.9687 32.8438L29.75 29.25H20.75C20.3437 29.25 20 28.9375 20 28.5V27.5C20 27.0938 20.3437 26.75 20.75 26.75H29.75L25.9687 23.1875C25.6875 22.875 25.6562 22.4062 25.9687 22.0938L26.6562 21.4062C26.9375 21.125 27.4375 21.125 27.7187 21.4062L33.7812 27.5C34.0937 27.7812 34.0937 28.25 33.7812 28.5312L27.7187 34.625C27.4375 34.9062 26.9687 34.9062 26.6562 34.625L25.9687 33.9375Z" fill="#959EAD"/>
</svg>
