<svg width="36" height="36" viewBox="0 0 36 36" fill="none" xmlns="http://www.w3.org/2000/svg">
<g id="ic_Close">
<path id="Path" d="M18 16.0424L27.3333 6.70813C27.9776 6.06376 29.0224 6.06376 29.6667 6.70813C30.2651 7.30647 30.3078 8.25001 29.7949 8.89767L29.6667 9.04158L20.3325 18.3749L29.6667 27.7081C30.2651 28.3065 30.3078 29.25 29.7949 29.8977L29.6667 30.0416C29.0684 30.6399 28.1248 30.6827 27.4772 30.1698L27.3333 30.0416L18 20.7074L8.66673 30.0416C8.06839 30.6399 7.12484 30.6827 6.47719 30.1698L6.33328 30.0416C5.73494 29.4432 5.6922 28.4997 6.20506 27.852L6.33328 27.7081L15.6675 18.3749L6.33328 9.04158C5.73494 8.44324 5.6922 7.4997 6.20506 6.85204L6.33328 6.70813C6.93162 6.10979 7.87516 6.06705 8.52281 6.57991L8.66673 6.70813L18 16.0424L27.3333 6.70813L18 16.0424Z" fill="#183B56"/>
</g>
</svg>
