<svg width="56" height="54" viewBox="0 0 56 54" fill="none" xmlns="http://www.w3.org/2000/svg">
<rect x="55" y="1" width="52" height="54" rx="26" transform="rotate(90 55 1)" stroke="#959EAD" stroke-width="2"/>
<path d="M21.0625 27.317C21.375 27.6295 21.8438 27.5982 22.1563 27.317L25.75 23.5357V32.5357C25.75 32.942 26.0625 33.2857 26.5 33.2857H27.5C27.9063 33.2857 28.25 32.942 28.25 32.5357L28.25 23.5357L31.8125 27.317C32.125 27.5982 32.5938 27.6295 32.9063 27.317L33.5938 26.6295C33.875 26.3482 33.875 25.8482 33.5938 25.567L27.5 19.5045C27.2188 19.192 26.75 19.192 26.4688 19.5045L20.375 25.567C20.0938 25.8482 20.0938 26.317 20.375 26.6295L21.0625 27.317Z" fill="#959EAD"/>
</svg>
